<svg width="981" height="982" viewBox="0 0 981 982" fill="none" xmlns="http://www.w3.org/2000/svg">
<path d="M444.06 2.01994C348.73 11.2299 254.16 50.17 180.12 110.4C158.25 128.05 123.73 162.96 106.46 184.63C62.53 239.68 26.47 314.11 11.51 380.86C2.11 422.68 0 443.21 0 491.16C0 539.11 2.11 559.64 11.51 601.45C26.66 669.55 63.68 745.12 109.15 800.94C126.8 822.81 161.71 857.34 183.38 874.6C238.43 918.52 312.86 954.59 379.61 969.55C421.43 978.95 441.95 981.06 489.91 981.06C537.87 981.06 558.39 978.95 600.21 969.55C650.27 958.42 715.87 930.42 759.03 901.84C833.65 852.16 891 786.94 930.33 706.95C954.31 658.04 967.93 614.11 976.56 558.29C981.16 527.41 981.16 454.9 976.56 424.02C967.93 368.2 954.31 324.27 930.33 275.36C904.62 223.19 876.04 183.29 834.8 142.62C794.33 102.53 757.31 76.2499 705.71 50.9299C657.37 27.1399 612.49 13.14 558.97 4.88996C534.79 1.25996 469.19 -0.280056 444.06 2.01994ZM470.72 148.76V255.22H463.24C448.09 255.22 383.83 249.27 359.08 245.63C323.4 240.45 313.43 238.15 313.43 235.08C313.43 230.09 330.31 188.47 341.24 166.6C372.12 105.22 412.4 61.68 452.11 46.91C472.83 39.24 470.72 27.53 470.72 148.76ZM527.12 46.91C567.21 61.3 607.49 104.65 638.57 166.6C649.5 188.47 666.38 230.09 666.38 235.08C666.38 240.83 600.59 250.23 530.76 254.45L509.09 255.79V148.95C509.09 56.88 509.47 42.3 511.97 42.3C513.5 42.31 520.21 44.42 527.12 46.91ZM354.1 74.34C345.66 84.7 334.34 99.85 328.97 108.29C315.35 129.39 293.87 172.93 282.93 202.47C272 231.63 276.22 229.9 240.54 218.39C206.01 207.26 159.98 187.51 159.98 183.86C159.98 181.37 187.79 154.9 205.06 140.89C235.94 115.95 272.77 93.13 305.77 78.55C319.58 72.6 364.47 56.1099 367.73 55.9199C368.67 55.7299 362.54 64.17 354.1 74.34ZM634.15 63.21C696.68 84.89 746.56 114.43 795.28 158.54C804.49 166.98 813.89 176.19 816.19 179.26C820.41 184.63 820.41 184.82 816.77 186.74C800.27 196.33 747.91 216.86 720.48 224.34L706.48 228.18L704.94 223.96C703.98 221.66 700.15 211.11 696.31 200.56C687.1 175.82 663.7 128.05 651.04 108.49C645.48 100.05 634.16 84.7 625.72 74.35C617.28 64.18 610.95 55.74 611.33 55.74C611.9 55.73 622.07 59.18 634.15 63.21ZM179.16 237.58C200.45 246.6 237.09 259.45 251.67 262.9C258.19 264.43 261.64 266.16 261.64 268.08C261.64 269.61 259.91 277.48 258 285.53C248.02 324.66 239.97 380.48 236.52 434.96L234.03 471.98H136.59H39.13V464.69C39.13 460.66 40.28 447.43 41.82 435.34C51.41 357.85 82.1 281.89 128.52 220.12L132.16 215.32L146.55 222.61C154.41 226.64 169.18 233.36 179.16 237.58ZM867.21 242.76C894.83 283.81 918.81 340.2 930.13 390.65C935.31 413.67 940.68 451.46 940.68 464.69V471.98H843.23H745.79L743.29 434.96C739.84 380.48 731.78 324.66 721.81 285.53C719.89 277.47 718.16 269.61 718.16 268.08C718.16 266.16 721.61 264.43 728.32 262.9C746.93 258.49 797.57 239.5 822.7 227.61L847.64 215.72L853.59 223.39C856.85 227.79 862.99 236.43 867.21 242.76ZM317.27 278.43C345.85 284.95 422.96 293.58 454.04 293.58H470.73V382.78V471.98H372.52H274.5L275.65 441.29C277.57 394.87 285.62 337.52 296.37 293.02C300.96 274.41 300.58 274.6 317.27 278.43ZM683.45 293.01C694.19 337.51 702.25 394.86 704.16 441.28L705.31 471.97H607.3H509.09V382.77V293.57H525.97C556.47 293.57 637.03 284.55 662.55 278.42C678.65 274.41 679.04 274.6 683.45 293.01ZM236.51 547.17C239.96 601.84 248.02 657.66 257.99 696.79C259.91 704.84 261.63 712.71 261.63 714.25C261.63 716.17 258.18 717.89 251.66 719.43C228.07 724.99 174.55 745.52 145.58 760.1L132.15 767L128.51 762.2C82.1 700.43 51.41 624.47 41.82 546.98C40.29 534.9 39.13 521.66 39.13 517.63V510.34H136.57H234.01L236.51 547.17ZM470.72 599.54V688.74H454.03C422.96 688.74 345.85 697.37 317.26 703.89C300.57 707.73 300.96 707.92 296.35 689.12C285.61 644.81 277.55 587.46 275.63 541.04L274.48 510.35H372.5H470.71V599.54H470.72ZM704.16 541.03C702.24 587.45 694.19 644.8 683.45 689.11C678.85 707.91 679.23 707.72 662.54 703.88C633.96 697.36 556.85 688.73 525.96 688.73H509.08V599.53V510.33H607.3H705.32L704.16 541.03ZM940.68 517.63C940.68 521.66 939.53 534.89 937.99 546.98C928.4 624.48 897.71 700.44 851.29 762.2L847.64 767L833.25 759.71C802.94 744.56 752.88 725.37 728.32 719.43C721.61 717.9 718.16 716.17 718.16 714.25C718.16 712.72 719.89 704.85 721.81 696.79C731.78 657.66 739.84 601.84 743.29 547.17L745.79 510.34H843.23H940.68V517.63ZM470.72 833.56C470.72 925.44 470.34 940.02 467.84 940.02C466.31 940.02 459.59 937.91 452.69 935.42C412.6 921.03 372.32 877.68 341.24 815.73C330.31 793.86 313.43 752.24 313.43 747.25C313.43 745.72 317.27 743.8 323.6 742.65C343.55 738.43 384.02 733.06 408.38 730.95C422.19 729.99 436.77 728.65 440.99 728.46C445.21 728.08 453.65 727.69 459.79 727.5L470.72 727.12V833.56ZM559.73 729.97C617.85 734.76 666.38 742.63 666.38 747.23C666.38 752.22 649.5 793.84 638.57 815.71C613.63 865.2 582.56 903.37 549.76 924.47C539.79 930.8 517.54 940.01 511.97 940.01C509.47 940.01 509.09 925.43 509.09 833.55V727.1H516.57C520.79 727.1 540.16 728.44 559.73 729.97ZM281.78 776.97C290.99 802.87 315.92 854.08 328.78 873.84C334.34 882.28 345.66 897.63 354.1 907.79C362.54 918.15 368.87 926.59 368.49 926.59C367.91 926.59 357.75 923.14 345.66 919.11C283.13 897.44 233.25 867.9 184.53 823.78C175.32 815.34 165.92 806.13 163.62 803.06C159.4 797.69 159.4 797.5 163.04 795.39C185.87 782.16 269.88 751.85 273.33 755.68C273.92 756.25 277.75 765.84 281.78 776.97ZM751.74 767.95C782.24 778.5 819.84 795.38 819.84 798.45C819.84 800.94 792.03 827.61 774.76 841.42C731.41 876.52 687.67 900.5 634.16 919.11C622.08 923.14 611.91 926.59 611.33 926.59C610.95 926.59 617.28 918.15 625.72 907.79C634.16 897.62 645.48 882.28 651.04 873.84C663.7 854.27 687.1 806.51 696.31 781.77C700.15 771.22 703.98 760.67 704.94 758.37L706.48 754.15L719.52 757.8C726.61 759.9 741.19 764.5 751.74 767.95Z" fill="white"/>
</svg>
